<?xml version="1.0" encoding="UTF-8"?>
<svg version="1.1" xmlns="http://www.w3.org/2000/svg" width="921" height="1152">
<path d="M0 0 C303.93 0 607.86 0 921 0 C921 380.16 921 760.32 921 1152 C617.07 1152 313.14 1152 0 1152 C0 771.84 0 391.68 0 0 Z " fill="#FEFEFE" transform="translate(0,0)"/>
<path d="M0 0 C2.0625 0.4375 2.0625 0.4375 4 1 C13.52788634 30.32214262 11.28048419 48.68492173 1 77 C1.81678223 76.98428955 2.63356445 76.9685791 3.47509766 76.95239258 C7.19166077 76.8898606 10.90811296 76.85095056 14.625 76.8125 C15.91019531 76.78736328 17.19539062 76.76222656 18.51953125 76.73632812 C20.38544922 76.72182617 20.38544922 76.72182617 22.2890625 76.70703125 C24.00150146 76.68346558 24.00150146 76.68346558 25.74853516 76.65942383 C30.48114561 77.15514327 33.86036642 78.59445192 36.875 82.3125 C38.23833511 85.56935609 38.50047119 87.49670169 38 91 C35.85215222 94.98886017 34.21847092 97.35123144 30 99 C27.203125 99.4140625 27.203125 99.4140625 24.25 99.625 C23.26515625 99.69976563 22.2803125 99.77453125 21.265625 99.8515625 C20.51796875 99.90054688 19.7703125 99.94953125 19 100 C19.639375 100.515625 20.27875 101.03125 20.9375 101.5625 C23 104 23 104 23.10546875 107.34765625 C23.60999702 110.93705304 23.60999702 110.93705304 25.61987305 112.39575195 C27.82675971 113.68484174 30.05676498 114.79921773 32.375 115.875 C33.15617188 116.26429688 33.93734375 116.65359375 34.7421875 117.0546875 C40.16755916 119.73021325 44.58953103 121.13986849 50.6875 121.5625 C51.86699219 121.64628906 53.04648437 121.73007812 54.26171875 121.81640625 C55.16535156 121.87699219 56.06898438 121.93757812 57 122 C57.69921875 123.59765625 57.69921875 123.59765625 58 126 C56.70703125 129.05859375 56.70703125 129.05859375 54.8125 132.4375 C54.20019531 133.54996094 53.58789062 134.66242188 52.95703125 135.80859375 C51.1531878 138.75019075 49.22126856 141.36501402 47 144 C47.7940625 144.81855469 48.588125 145.63710938 49.40625 146.48046875 C52.50438812 150.20150718 52.96766485 153.60933461 53.5 158.3125 C54.44503369 164.81327089 55.48827724 170.91536006 60 176 C65.66428858 180.17115128 71.22674261 179.89254401 78 179 C86.09932248 176.78260025 93.76825929 172.81188198 101.14453125 168.8828125 C103 168 103 168 105 168 C99.02545049 160.31265214 92.62761197 153.50736296 85.63320923 146.76989746 C73.15378369 134.69417597 62.50221932 122.85963053 57 106 C56.74323486 105.21592773 56.48646973 104.43185547 56.22192383 103.62402344 C54.09018018 96.58857419 53.48990701 90.08075765 53.5625 82.75 C53.57152344 81.65316895 53.58054687 80.55633789 53.58984375 79.42626953 C53.98558096 60.80188688 61.0039396 43.52163637 74 30 C85.67901498 19.12775908 97.95151939 14.29899583 113.7734375 14.6953125 C124.10330871 15.25058323 132.41384252 20.17127478 140 27 C150.50601835 38.79658491 154.5710585 53.97983029 158 69 C158.18908936 69.77915771 158.37817871 70.55831543 158.57299805 71.36108398 C163.57345004 93.51230674 160.48946391 116.56066928 149 136 C147.17632954 138.85994971 145.21452939 141.43521341 143 144 C142.4534375 144.68835938 141.906875 145.37671875 141.34375 146.0859375 C135.4701147 153.17909877 128.32018426 158.5008468 121 164 C120.24203125 164.60070312 119.4840625 165.20140625 118.703125 165.8203125 C117 167 117 167 115 167 C118.60594335 171.18437112 122.26786368 175.28947484 126.07250977 179.29516602 C138.96784287 193.00210893 145.86955723 207.22833798 145.51049805 226.18261719 C144.63481035 246.66080436 135.08785773 264.29958871 126.37997437 282.49249268 C125.52398732 284.28293199 124.67405729 286.07626302 123.82421875 287.86962891 C122.75444547 290.1199187 121.67036489 292.36347718 120.5703125 294.59912109 C120.08691406 295.61441895 119.60351562 296.6297168 119.10546875 297.67578125 C118.45807739 299.0047644 118.45807739 299.0047644 117.79760742 300.3605957 C116.81488061 303.61258822 117.26635351 305.71382894 118 309 C118.16272352 311.49687239 118.26419476 313.99829712 118.3125 316.5 C118.34988281 317.7684375 118.38726563 319.036875 118.42578125 320.34375 C117.92813726 324.61709658 116.75939936 326.73437989 114 330 C110.9375 330.625 110.9375 330.625 108 330 C105.14396632 327.71517306 105.00795331 326.06476263 104.5625 322.4375 C104.70782454 317.85550283 106.3378603 313.98479174 108.125 309.80859375 C109.9288124 304.01867806 109.22242715 299.59914192 106.61401367 294.30541992 C106.26701416 293.64775635 105.92001465 292.99009277 105.5625 292.3125 C105.20196533 291.61552002 104.84143066 290.91854004 104.4699707 290.20043945 C94.64565517 271.74680049 79.77020213 256.6070322 59.73046875 249.7890625 C50.44663934 247.1061819 41.93020825 246.60479945 32.3125 246.625 C31.52220398 246.62421448 30.73190796 246.62342896 29.91766357 246.62261963 C15.4299883 246.63976481 1.52935009 248.07982191 -12.76855469 250.46606445 C-23.80674432 252.28991764 -34.86426829 253.54808978 -46 254.5625 C-48.05557093 254.75119783 -50.11102541 254.94095497 -52.16625977 255.13328552 C-54.0090513 255.30556632 -55.85217225 255.47431307 -57.6953125 255.64282227 C-60.8251615 255.98110308 -63.90129284 256.44871975 -67 257 C-65.96037736 260.78719676 -65.12991934 263.09427101 -62.03125 265.578125 C-51.9872188 271.25235042 -41.45693995 269.21839361 -30.5390625 267.51171875 C-24.71026747 266.66892388 -18.87983064 266.28094754 -13 266 C-11.91847656 265.94585938 -10.83695313 265.89171875 -9.72265625 265.8359375 C-1.5754612 265.61867897 6.18366658 266.6234858 14 269 C14.66 269.66 15.32 270.32 16 271 C15.625 273.125 15.625 273.125 15 275 C9 274 9 274 6.4375 273.4765625 C1.82029715 272.83645029 -2.71853222 272.80895507 -7.375 272.8125 C-8.86749268 272.81262085 -8.86749268 272.81262085 -10.39013672 272.81274414 C-22.31642816 272.90124576 -34.86209223 273.15413228 -46.58642578 275.52246094 C-49.25231684 276.04992229 -51.85323707 276.15404737 -54.56494141 276.23901367 C-67.22612462 276.66482553 -79.54611801 278.79960255 -92 281 C-93.36679487 281.23687845 -94.73365958 281.47335414 -96.10058594 281.70947266 C-99.69494603 282.33213369 -103.28631936 282.97012134 -106.87615967 283.61831665 C-108.27467012 283.86964823 -109.67379271 284.11760086 -111.07354736 284.36190796 C-118.94116759 285.74252686 -125.86275744 287.36877133 -133 291 C-133 291.99 -133 292.98 -133 294 C-129.6038898 296.04837458 -126.95049596 296.26305402 -123.015625 296.30859375 C-121.79029053 296.33155518 -120.56495605 296.3545166 -119.30249023 296.37817383 C-118.64465546 296.38732819 -117.98682068 296.39648254 -117.30905151 296.40591431 C-40.41452958 297.58547042 -40.41452958 297.58547042 -32 306 C-32.375 308.125 -32.375 308.125 -33 310 C-37.01636908 309.52669051 -41.00617181 309.02374818 -44.98828125 308.31640625 C-58.9176134 305.86571084 -72.89458473 304.88109412 -87 304 C-83.75761406 305.31135283 -80.50494177 306.59516575 -77.25 307.875 C-76.34894531 308.23980469 -75.44789063 308.60460937 -74.51953125 308.98046875 C-62.54261625 313.65231503 -50.095008 314.5061005 -37.38867188 315.6796875 C-31.82772948 316.23546596 -26.37710424 316.89651042 -20.89379883 317.97119141 C-5.93862836 320.88844488 8.47117857 321.59883076 23.6875 321.625 C49.52168085 321.75029237 49.52168085 321.75029237 61.28125 322.8828125 C62.48723091 322.99527817 62.48723091 322.99527817 63.71757507 323.11001587 C69.87936764 323.77912886 74.90338361 325.3624547 80 329 C80.95712891 329.64775391 80.95712891 329.64775391 81.93359375 330.30859375 C88.31041484 335.14949234 92.40923257 342.51556075 95 350 C94.625 352.3125 94.625 352.3125 94 354 C92.68 354 91.36 354 90 354 C89.5875 353.07058594 89.175 352.14117188 88.75 351.18359375 C84.56194816 342.08346233 80.6352633 335.86706378 71.4375 331.1875 C60.07669683 327.59333014 47.43139163 327.57646197 35.62182617 327.51953125 C33.19896558 327.50009199 30.7794953 327.43776453 28.35742188 327.375 C16.51819535 327.21921873 7.00322529 329.80605432 -4 334 C-29.80621076 341.26162559 -62.89499808 324.10843834 -86 314 C-86.33 313.67 -86.66 313.34 -87 313 C-88.66319252 312.90290674 -90.33009179 312.86797372 -91.99609375 312.859375 C-93.03056641 312.84003906 -94.06503906 312.82070313 -95.13085938 312.80078125 C-97.29995103 312.76746974 -99.46932606 312.74874091 -101.63867188 312.74609375 C-110.10443149 312.54788126 -117.17438033 310.78729961 -123.33984375 304.68359375 C-128.67319654 301.30815314 -135.90260364 302.92218783 -142.00585938 303.24414062 C-150.37504418 303.50583195 -150.37504418 303.50583195 -153.74609375 300.77734375 C-155.60275327 296.66492967 -155.79910449 293.42332584 -155 289 C-153.3125 286.25 -153.3125 286.25 -151 284 C-150.175 283.154375 -149.35 282.30875 -148.5 281.4375 C-147.2625 280.2309375 -147.2625 280.2309375 -146 279 C-145.42121094 278.29875 -144.84242188 277.5975 -144.24609375 276.875 C-140.45153065 273.70736472 -136.54983859 274.53789343 -131.80078125 274.65625 C-127.05516099 275.08545307 -122.65492502 276.19666989 -118.0546875 277.39453125 C-112.49475107 278.49656469 -107.33266055 277.77755352 -102 276 C-100.43881572 275.93259135 -98.8749748 275.91485544 -97.3125 275.9375 C-96.50425781 275.94652344 -95.69601562 275.95554687 -94.86328125 275.96484375 C-93.94095703 275.98224609 -93.94095703 275.98224609 -93 276 C-92.9175 274.948125 -92.835 273.89625 -92.75 272.8125 C-91.90874794 268.53613534 -91.13730427 266.97641687 -88 264 C-85.40734077 262.48307127 -82.75380048 261.19643273 -80 260 C-80.54785156 259.67128906 -81.09570312 259.34257813 -81.66015625 259.00390625 C-83.3812083 257.97127502 -85.09966632 256.93431558 -86.81640625 255.89453125 C-89.08220532 254.54617229 -91.35220263 253.23549375 -93.65234375 251.94921875 C-104.3118503 245.90846849 -115.66339839 238.51258041 -119.5703125 226.203125 C-120.77402163 220.03138003 -121.02613934 213.35156932 -118.5 207.5625 C-114.28324868 203.2403299 -109.2188222 198.14030763 -102.953125 197.8671875 C-101.73109375 197.86976563 -100.5090625 197.87234375 -99.25 197.875 C-97.43242187 197.87113281 -97.43242187 197.87113281 -95.578125 197.8671875 C-92.29025367 197.98922639 -89.22593463 198.37658319 -86 199 C-85.81824219 197.95199219 -85.81824219 197.95199219 -85.6328125 196.8828125 C-85.46523438 195.97273437 -85.29765625 195.06265625 -85.125 194.125 C-84.96257812 193.22007812 -84.80015625 192.31515625 -84.6328125 191.3828125 C-84 189 -84 189 -82 187 C-79.65984865 186.5181115 -77.43178227 186.18941889 -75.0625 185.9375 C-74.31194336 185.85153564 -73.56138672 185.76557129 -72.78808594 185.67700195 C-66.93438002 185.09129507 -61.10788724 184.91040292 -55.23046875 184.828125 C-54.06844688 184.80867577 -54.06844688 184.80867577 -52.88294983 184.78883362 C-48.94213238 184.7246544 -45.00408405 184.68768147 -41.06274414 184.69311523 C-39.57827599 184.67527036 -38.09381849 184.65650898 -36.609375 184.63671875 C-35.93178635 184.64701111 -35.25419769 184.65730347 -34.55607605 184.66790771 C-29.0066688 184.55330498 -26.75223741 182.80529586 -23 179 C-19.44353894 172.36127268 -18.89590335 165.43177659 -20 158 C-21.65570324 153.8899602 -24.03607468 151.09546709 -27.92626953 148.92553711 C-35.44991814 145.8629676 -43.18908659 144.26565625 -51.11352539 142.62277222 C-99.66606476 132.49565624 -99.66606476 132.49565624 -112.0078125 115.18359375 C-117.6518444 106.42049159 -118.75046838 100.36914768 -118 90 C-117.14017636 86.6344046 -115.80647736 83.95246143 -114 81 C-113.38125 79.88044922 -113.38125 79.88044922 -112.75 78.73828125 C-106.64743943 68.52689438 -96.68710719 62.93598509 -86.375 57.625 C-79.058073 53.75306024 -71.79437554 49.852364 -64.75 45.5 C-64.11368652 45.11537598 -63.47737305 44.73075195 -62.82177734 44.33447266 C-56.91582464 40.62192742 -53.8841012 36.96901997 -52.25 30.1875 C-51.88648438 28.72376953 -51.88648438 28.72376953 -51.515625 27.23046875 C-51.34546875 26.49441406 -51.1753125 25.75835937 -51 25 C-49.68 25 -48.36 25 -47 25 C-46.44353786 31.6775457 -47.13135625 36.4567288 -51 42 C-56.51044599 47.7782684 -63.04284213 51.5899907 -70 55.375 C-71.00732178 55.93445313 -72.01464355 56.49390625 -73.05249023 57.0703125 C-76.02996747 58.72286093 -79.01375801 60.3633538 -82 62 C-84.34520986 63.28744184 -86.68945702 64.57635894 -89.02929688 65.87353516 C-90.33301643 66.59584087 -91.64004927 67.31221704 -92.95117188 68.02099609 C-101.62934708 72.81695566 -107.03507309 78.93537678 -111.375 87.8125 C-112.79944446 95.07716675 -113.28158488 102.60763075 -109.3671875 109.140625 C-95.550273 127.93162872 -71.84870575 131.80876527 -50.4453125 136.41015625 C-48.72562256 136.78841553 -48.72562256 136.78841553 -46.97119141 137.17431641 C-44.70790166 137.67192815 -42.44200228 138.15785796 -40.17333984 138.63037109 C-30.11702158 140.8567661 -21.90404318 144.23855131 -16 153 C-12.82076306 158.61665193 -12.12670611 163.6803571 -13 170 C-14.50130172 174.91271031 -16.70370215 179.42062213 -19 184 C-18.42814972 183.99333817 -17.85629944 183.98667633 -17.26712036 183.97981262 C-11.33031827 183.91358608 -5.3936206 183.86825249 0.54345703 183.83520508 C2.76094828 183.82009247 4.97840953 183.79960174 7.19580078 183.77368164 C10.37800489 183.73740707 13.55981482 183.72029861 16.7421875 183.70703125 C17.73805878 183.69154739 18.73393005 183.67606354 19.75997925 183.66011047 C21.14118454 183.65977058 21.14118454 183.65977058 22.55029297 183.65942383 C23.3630368 183.65276199 24.17578064 183.64610016 25.01315308 183.63923645 C25.66881256 183.75828842 26.32447205 183.87734039 27 184 C32.65626393 192.4843959 31.31244834 205.893571 31.25 215.75 C31.25773438 216.98621094 31.26546875 218.22242188 31.2734375 219.49609375 C31.25840117 226.57068921 30.74519957 233.13448826 29 240 C29.77601563 239.97679687 30.55203125 239.95359375 31.3515625 239.9296875 C55.08343169 239.53321236 74.53384132 246.59835687 91.79980469 262.69946289 C100.68953521 271.36559958 108.57837486 282.33924906 113 294 C116.98143219 289.02118705 119.43959004 283.2804646 122.1875 277.5625 C122.61961288 276.66436081 122.61961288 276.66436081 123.06045532 275.74807739 C126.89092228 267.75878731 130.51337952 259.71400199 133.6875 251.4375 C134.00162842 250.62547119 134.31575684 249.81344238 134.6394043 248.97680664 C139.79086569 235.06512152 141.82105297 218.74680994 136.25390625 204.6640625 C130.07670979 191.53992548 120.24881087 182.05624449 110 172 C109.44650879 172.25168945 108.89301758 172.50337891 108.32275391 172.76269531 C105.75787484 173.92743332 103.19144965 175.08872704 100.625 176.25 C99.75488281 176.64574219 98.88476562 177.04148437 97.98828125 177.44921875 C95.3325081 178.64923477 92.66792852 179.82728417 90 181 C89.14599609 181.38671875 88.29199219 181.7734375 87.41210938 182.171875 C81.88568465 184.56168028 77.26329739 185.63289055 71.25 185.5 C70.17685547 185.52320313 70.17685547 185.52320313 69.08203125 185.546875 C63.90157912 185.50885333 60.97300903 184.25590114 57 181 C50.78326716 174.67491452 48.15164241 167.40936917 47.5625 158.6875 C47.29960773 155.6595444 47.09858112 154.17144542 45.5625 151.5 C42.22562217 149.54670566 39.0506678 149.09274397 35.2421875 148.58984375 C33 148 33 148 31 145 C30.98828125 142.84375 30.98828125 142.84375 31.3125 140.5 C31.41175781 139.7265625 31.51101563 138.953125 31.61328125 138.15625 C32 136 32 136 33 133 C32.26394531 132.98582031 31.52789062 132.97164062 30.76953125 132.95703125 C22.72272612 132.56372638 22.72272612 132.56372638 18.875 129.5625 C16.45272707 126.25206033 15.84564498 124.59955827 15.8125 120.5625 C15.79832031 119.78003906 15.78414062 118.99757813 15.76953125 118.19140625 C16 116 16 116 18 113 C18.64707813 109.51195554 18.64707813 109.51195554 17 106 C14.135218 104.4245969 11.2222711 103.3589325 8.15234375 102.23828125 C2.45624832 100.00078156 -2.16006691 96.74635448 -5.5 91.5625 C-8.64724045 84.08780392 -6.29255531 77.88944375 -3.75 70.625 C-3.44964844 69.73039062 -3.14929688 68.83578125 -2.83984375 67.9140625 C-1.35248969 63.55959615 0.25550772 59.33291036 2.171875 55.1484375 C8.6306352 40.87572381 4.878847 24.90672309 -0.12109375 10.84765625 C-1.17163075 7.44391638 -1.20835991 4.54211843 -1 1 C-0.67 0.67 -0.34 0.34 0 0 Z " fill="#0F0F0F" transform="translate(451,425)"/>
<path d="M0 0 C1.39143603 0.60529673 2.78340224 1.20937559 4.17578125 1.8125 C41.03031683 17.85858189 77.14904866 40.62189648 103 72 C104.22396484 73.40958984 104.22396484 73.40958984 105.47265625 74.84765625 C133.14008184 106.74266843 152.33265938 144.20585237 163 185 C163.41780647 186.55212703 163.8357697 188.10421187 164.25390625 189.65625 C168.16897054 204.53217331 168.16897054 204.53217331 165.875 209.375 C164 211 164 211 161 211.4375 C157.64597506 210.94837136 157.02783659 210.58701701 155 208 C154.34326172 205.88476562 154.34326172 205.88476562 153.9296875 203.40625 C153.76065918 202.47232422 153.59163086 201.53839844 153.41748047 200.57617188 C153.23846191 199.56103516 153.05944336 198.54589844 152.875 197.5 C144.95996169 156.73043596 125.64808576 118.71220537 99 87 C98.55688477 86.46810059 98.11376953 85.93620117 97.65722656 85.38818359 C88.79953823 74.77611677 79.67165811 64.90814753 68.82421875 56.26953125 C66.94482353 54.75925653 65.09255104 53.2145828 63.26953125 51.63671875 C24.62374689 18.21477835 -24.06728865 1.53083587 -74 -5 C-74.74685059 -5.10675049 -75.49370117 -5.21350098 -76.26318359 -5.32348633 C-83.51990801 -6.27617531 -90.81764483 -6.20096151 -98.125 -6.1875 C-98.83274567 -6.18623108 -99.54049133 -6.18496216 -100.26968384 -6.18365479 C-171.18976968 -5.94239949 -235.22692888 22.34732908 -285.375 72.125 C-291.65848642 78.45559294 -297.6650024 84.83613111 -303 92 C-303.48774902 92.64904297 -303.97549805 93.29808594 -304.47802734 93.96679688 C-311.95794991 103.95798057 -318.90493314 114.10709068 -325 125 C-325.39251953 125.69077637 -325.78503906 126.38155273 -326.18945312 127.09326172 C-336.61434969 145.56812793 -344.83679727 165.40643146 -350 186 C-350.20963379 186.81968262 -350.41926758 187.63936523 -350.63525391 188.48388672 C-352.26833425 194.95510235 -353.70609918 201.45270168 -355 208 C-355.16806152 208.8461084 -355.33612305 209.6922168 -355.50927734 210.56396484 C-360.65046933 237.95346539 -359.92868961 268.65021737 -355 296 C-354.8443457 296.93875977 -354.68869141 297.87751953 -354.52832031 298.84472656 C-348.62639029 333.98535978 -334.10909717 371.0470853 -313 400 C-312.56606934 400.60086426 -312.13213867 401.20172852 -311.68505859 401.82080078 C-297.39444129 421.54332339 -281.38713702 440.10843099 -262 455 C-260.48019531 456.21042969 -260.48019531 456.21042969 -258.9296875 457.4453125 C-246.46766164 467.31755585 -233.04236187 475.57037611 -219 483 C-217.87440674 483.59748047 -217.87440674 483.59748047 -216.72607422 484.20703125 C-198.73659391 493.60646944 -179.40931761 499.91987155 -159.87963867 505.30883789 C-158 506 -158 506 -156 508 C-156.46153846 514.46153846 -156.46153846 514.46153846 -159 517 C-166.42524629 516.69938274 -173.18836425 514.70748352 -180.25 512.5 C-181.39098145 512.14470215 -182.53196289 511.7894043 -183.70751953 511.42333984 C-194.4763335 507.98482378 -204.77229566 503.79808421 -215 499 C-215.84788086 498.60554687 -216.69576172 498.21109375 -217.56933594 497.8046875 C-229.69516394 492.11137939 -240.96408704 485.58095127 -252 478 C-252.91555664 477.3817334 -252.91555664 477.3817334 -253.84960938 476.75097656 C-262.946523 470.59543141 -271.23101475 463.69577578 -279.42724609 456.39355469 C-281.32362478 454.71324895 -283.25593663 453.07712936 -285.1875 451.4375 C-294.33673989 443.38219097 -302.51047298 434.61045502 -310 425 C-310.80050781 423.99324219 -311.60101563 422.98648437 -312.42578125 421.94921875 C-322.58234928 409.08039666 -331.28817715 395.45922626 -339 381 C-339.34272949 380.35981934 -339.68545898 379.71963867 -340.03857422 379.06005859 C-345.47514968 368.80889979 -349.87686045 358.23604365 -354.05639648 347.41894531 C-355.05402772 344.86149892 -356.0825035 342.31768707 -357.11328125 339.7734375 C-378.50555345 286.29794175 -375.61690272 219.64485928 -357 166 C-356.62584961 164.88310791 -356.62584961 164.88310791 -356.24414062 163.74365234 C-345.92430806 133.00301998 -329.71325932 104.87822349 -309 80 C-308.35490479 79.21955322 -308.35490479 79.21955322 -307.69677734 78.42333984 C-297.96155724 66.68351094 -287.71095547 55.64066165 -275.71875 46.1640625 C-272.88911442 43.91173763 -270.17208056 41.55396395 -267.4375 39.1875 C-259.74969987 32.7809999 -251.44687888 27.34812036 -243 22 C-242.30777344 21.56155762 -241.61554688 21.12311523 -240.90234375 20.67138672 C-215.45944247 4.74506195 -187.37201204 -6.79642849 -158 -13 C-157.1440625 -13.18401367 -156.288125 -13.36802734 -155.40625 -13.55761719 C-104.92314962 -24.1924762 -47.52046605 -21.30028198 0 0 Z " fill="#070707" transform="translate(565,365)"/>
<path d="M0 0 C16.41897706 12.00155373 20.69786254 31.8244437 24.41015625 50.76171875 C24.60738281 51.72722656 24.80460938 52.69273437 25.0078125 53.6875 C26.4478834 64.69076017 26.38611243 77.05137645 23.41015625 87.76171875 C23.08015625 88.95152344 22.75015625 90.14132812 22.41015625 91.3671875 C16.10098346 112.69537445 0.56199244 126.87492309 -17.58984375 138.76171875 C-21.88260562 137.09972998 -24.78547632 133.87185575 -27.97265625 130.6796875 C-28.89411942 129.76465202 -28.89411942 129.76465202 -29.834198 128.83113098 C-31.13615534 127.53491445 -32.43550261 126.23607178 -33.73242188 124.93481445 C-35.67848149 122.98563923 -37.63733352 121.05005013 -39.59765625 119.11523438 C-58.64804598 100.16478181 -70.87769547 81.13808595 -71.04516602 53.57885742 C-70.75160431 35.76798682 -63.02593496 20.9223535 -50.9765625 8.0546875 C-37.62900982 -4.76857506 -16.65792022 -10.0509814 0 0 Z " fill="#FDFDFD" transform="translate(580.58984375,450.23828125)"/>
<path d="M0 0 C2.58398349 0.00503384 5.16796795 0.00959336 7.75195312 0.01367188 C13.98049049 0.02450802 20.20899044 0.04109152 26.4375 0.0625 C29.26968825 9.81757849 29.54300969 19.13590912 29.625 29.25 C29.63805176 30.18851807 29.65110352 31.12703613 29.66455078 32.09399414 C29.67307334 38.97961386 29.36153277 45.17645084 25.4375 51.0625 C23.11914062 51.68969727 23.11914062 51.68969727 20.09375 52.06640625 C18.91941406 52.22254395 17.74507812 52.37868164 16.53515625 52.53955078 C15.88111816 52.62182922 15.22708008 52.70410767 14.55322266 52.78887939 C11.47588285 53.18686331 8.40750654 53.64226714 5.33735657 54.09190369 C-12.19831005 56.65038568 -29.75190455 59.12282728 -47.375 61 C-48.5403125 61.12818115 -49.705625 61.2563623 -50.90625 61.38842773 C-51.97488281 61.49614502 -53.04351562 61.6038623 -54.14453125 61.71484375 C-55.05436768 61.80757568 -55.9642041 61.90030762 -56.90161133 61.99584961 C-59.90260021 62.07101889 -62.62237668 61.63887313 -65.5625 61.0625 C-67.12145953 55.96095119 -68.63592663 50.85316311 -70.02734375 45.703125 C-70.27033203 44.81496094 -70.51332031 43.92679688 -70.76367188 43.01171875 C-71.25825826 41.19867265 -71.74513266 39.38350667 -72.22460938 37.56640625 C-74.49809649 29.3482602 -77.60747381 24.13387326 -84.5625 19.0625 C-89.37023825 17.45312999 -94.56712786 17.52266526 -99.5625 18.0625 C-103.45900219 20.53345261 -104.52471587 23.65191745 -105.5625 28.0625 C-106.03431727 33.3468534 -105.51693607 36.6308459 -102.5625 41.0625 C-97.34749554 46.88150215 -90.46551919 50.86027876 -83.90576172 54.97924805 C-73.3611485 61.61598059 -73.3611485 61.61598059 -69.5625 65.0625 C-69.5625 65.7225 -69.5625 66.3825 -69.5625 67.0625 C-84.12684098 63.0356044 -101.38024031 52.51154844 -109.6875 39.6875 C-112.19214013 34.59799996 -112.48567178 29.61878623 -111.5625 24.0625 C-109.26453056 19.20141081 -106.42358919 16.36046944 -101.5625 14.0625 C-95.46932624 13.33604113 -90.30187269 13.87607231 -84.5625 16.0625 C-81.89321879 16.48120553 -81.89321879 16.48120553 -79.5625 16.0625 C-77.53184169 13.01651253 -77.26767596 11.93437319 -77 8.4375 C-76.66091828 4.16091828 -76.66091828 4.16091828 -75.5625 3.0625 C-50.53522442 -0.21976565 -25.19017264 -0.08690224 0 0 Z " fill="#FCFCFC" transform="translate(447.5625,613.9375)"/>
<path d="M0 0 C1.32 0 2.64 0 4 0 C4.55646214 6.6775457 3.86864375 11.4567288 0 17 C-5.51044599 22.7782684 -12.04284213 26.5899907 -19 30.375 C-20.00732178 30.93445313 -21.01464355 31.49390625 -22.05249023 32.0703125 C-25.02996747 33.72286093 -28.01375801 35.3633538 -31 37 C-33.34520986 38.28744184 -35.68945702 39.57635894 -38.02929688 40.87353516 C-39.33301643 41.59584087 -40.64004927 42.31221704 -41.95117188 43.02099609 C-50.62934708 47.81695566 -56.03507309 53.93537678 -60.375 62.8125 C-61.79944446 70.07716675 -62.28158488 77.60763075 -58.3671875 84.140625 C-45.8791806 101.12431439 -25.4748564 105.66953057 -6 110 C-4.3033768 110.38016988 -2.60676239 110.76037899 -0.91015625 111.140625 C3.3914507 112.10191524 7.69513075 113.05343226 12 114 C11.01 115.65 10.02 117.3 9 119 C-47.54360359 109.07015917 -47.54360359 109.07015917 -61.0078125 90.18359375 C-66.6518444 81.42049159 -67.75046838 75.36914768 -67 65 C-66.14017636 61.6344046 -64.80647736 58.95246143 -63 56 C-62.5875 55.25363281 -62.175 54.50726563 -61.75 53.73828125 C-55.64743943 43.52689438 -45.68710719 37.93598509 -35.375 32.625 C-28.058073 28.75306024 -20.79437554 24.852364 -13.75 20.5 C-13.11368652 20.11537598 -12.47737305 19.73075195 -11.82177734 19.33447266 C-5.91582464 15.62192742 -2.8841012 11.96901997 -1.25 5.1875 C-0.88648438 3.72376953 -0.88648438 3.72376953 -0.515625 2.23046875 C-0.34546875 1.49441406 -0.1753125 0.75835937 0 0 Z " fill="#101111" transform="translate(400,450)"/>
<path d="M0 0 C2.64 0 5.28 0 8 0 C8.67900137 4.28980783 9.34092248 8.5820897 10 12.875 C10.19078125 14.07898438 10.3815625 15.28296875 10.578125 16.5234375 C11.62612507 23.41029513 12.28971051 30.03286463 12 37 C5.16190234 37.67040173 5.16190234 37.67040173 2.21777344 35.97167969 C0.50425517 34.51657351 -1.0644709 32.99290149 -2.625 31.375 C-3.15867187 30.85292969 -3.69234375 30.33085938 -4.2421875 29.79296875 C-5.84841485 28.21403167 -7.42329648 26.60842262 -9 25 C-10.98 23.02 -12.96 21.04 -15 19 C-14.67 25.93 -14.34 32.86 -14 40 C-16.97 40 -19.94 40 -23 40 C-23.50934629 35.7093897 -24.00575364 31.41737379 -24.5 27.125 C-24.64308594 25.92101562 -24.78617187 24.71703125 -24.93359375 23.4765625 C-25.71673958 16.61471333 -26.21540245 9.90683975 -26 3 C-19.22104931 2.19458012 -19.22104931 2.19458012 -16.10791016 4.24804688 C-14.24104275 6.00763485 -12.51787724 7.83358946 -10.8125 9.75 C-9.63371421 11.01767784 -8.45276863 12.28335122 -7.26953125 13.546875 C-6.7173291 14.14435547 -6.16512695 14.74183594 -5.59619141 15.35742188 C-3.55650547 17.45638287 -1.34389065 19.25201375 1 21 C0.835 19.7625 0.67 18.525 0.5 17.25 C-0.15112429 11.49993057 -0.08800414 5.7789386 0 0 Z " fill="#090909" transform="translate(495,845)"/>
<path d="M0 0 C3.93106626 1.64038532 7.14763068 4.06759576 10.55859375 6.59375 C16.73791507 11.08205156 22.97806145 15.35873466 29.50561523 19.32617188 C30.90988494 20.19851809 32.27110257 21.13955655 33.62109375 22.09375 C33.62109375 22.75375 33.62109375 23.41375 33.62109375 24.09375 C29.13378411 27.02776015 29.13378411 27.02776015 26.62109375 28.09375 C24.49609375 27.46875 24.49609375 27.46875 22.62109375 26.09375 C20.42519133 24.65901507 20.42519133 24.65901507 17.62109375 24.09375 C15.0165716 25.06166738 13.1155677 25.95558204 10.80859375 27.40625 C10.21618896 27.77073242 9.62378418 28.13521484 9.01342773 28.51074219 C6.42270942 30.26546839 4.80170955 31.40807892 3.98828125 34.49609375 C4.15169337 36.83698106 4.15169337 36.83698106 4.5546875 39.10546875 C4.57660156 39.76160156 4.59851563 40.41773438 4.62109375 41.09375 C0.13328887 45.09375 0.13328887 45.09375 -3.37890625 45.09375 C-5.02662795 36.04502929 -6.10264803 26.99427986 -7.00390625 17.84375 C-7.13896629 16.50126616 -7.27438108 15.15881796 -7.41015625 13.81640625 C-7.73654302 10.57585191 -8.05939267 7.33498798 -8.37890625 4.09375 C-3.20943339 0.12648013 -3.20943339 0.12648013 0 0 Z " fill="#0A0A0A" transform="translate(594.37890625,807.90625)"/>
<path d="M0 0 C-0.875 6.875 -0.875 6.875 -2 8 C-3.51469448 8.23192865 -5.03754562 8.41215238 -6.5625 8.5625 C-7.38878906 8.64628906 -8.21507812 8.73007812 -9.06640625 8.81640625 C-9.70449219 8.87699219 -10.34257813 8.93757812 -11 9 C-11.86772029 11.07772471 -12.71873619 13.16243177 -13.5625 15.25 C-14.03816406 16.41015625 -14.51382813 17.5703125 -15.00390625 18.765625 C-15.95987627 21.86971589 -16.34021713 23.10513101 -15 26 C-13.02329393 27.75422772 -13.02329393 27.75422772 -11 29 C-11.46183818 33.15654359 -11.88009102 35.21466571 -15 38 C-15.4846875 37.50371094 -15.969375 37.00742187 -16.46875 36.49609375 C-19.79901386 33.12099941 -23.13766154 29.82352327 -26.75 26.75 C-28.17272389 25.50689857 -29.58845057 24.25577572 -31 23 C-31.50740723 22.55076172 -32.01481445 22.10152344 -32.53759766 21.63867188 C-34.23520571 20.11534298 -35.9001492 18.56166095 -37.5625 17 C-38.11196289 16.51370117 -38.66142578 16.02740234 -39.22753906 15.52636719 C-40.75390625 14.0625 -40.75390625 14.0625 -43 11 C-42.90929042 7.51675194 -42.55439443 5.10878886 -41 2 C-39.27612305 1.58935547 -39.27612305 1.58935547 -37.01171875 1.3671875 C-35.74751099 1.24126221 -35.74751099 1.24126221 -34.45776367 1.11279297 C-33.54357666 1.03432129 -32.62938965 0.95584961 -31.6875 0.875 C-30.75719971 0.79008301 -29.82689941 0.70516602 -28.8684082 0.61767578 C-19.24175757 -0.18798985 -9.65155437 -0.18660363 0 0 Z " fill="#080808" transform="translate(736,678)"/>
<path d="M0 0 C2.64 0 5.28 0 8 0 C8 6.6 8 13.2 8 20 C10.31 20 12.62 20 15 20 C15 14.39 15 8.78 15 3 C17.31 3 19.62 3 22 3 C22 8.94 22 14.88 22 21 C24.97 21 27.94 21 31 21 C31 14.4 31 7.8 31 1 C33.31 1 35.62 1 38 1 C38 10.57 38 20.14 38 30 C25.28997198 30.11990592 12.69708513 29.63485426 0 29 C0 19.43 0 9.86 0 0 Z " fill="#0D0E0F" transform="translate(710,590)"/>
<path d="M0 0 C2.97 0 5.94 0 9 0 C8.99476318 0.73637695 8.98952637 1.47275391 8.98413086 2.23144531 C8.96333133 5.57095485 8.95033032 8.91045074 8.9375 12.25 C8.92912109 13.40886719 8.92074219 14.56773437 8.91210938 15.76171875 C8.90888672 16.87675781 8.90566406 17.99179687 8.90234375 19.140625 C8.89710693 20.16704102 8.89187012 21.19345703 8.88647461 22.25097656 C8.98663049 24.67625656 9.30076922 26.68697361 10 29 C13.01239597 29.5921804 15.92449467 30.04772336 19 30 C21.55151968 28.15014823 22.60976715 26.7804657 24 24 C24.13842659 22.67317399 24.2250296 21.34065474 24.28125 20.0078125 C24.31863281 19.22019531 24.35601562 18.43257812 24.39453125 17.62109375 C24.42933594 16.79738281 24.46414063 15.97367188 24.5 15.125 C24.56920865 13.50244176 24.64200553 11.88003177 24.71875 10.2578125 C24.76418945 9.17717529 24.76418945 9.17717529 24.81054688 8.07470703 C25.00330538 5.96380265 25.43258805 4.03935206 26 2 C28.64 2 31.28 2 34 2 C34.11795981 5.45803731 34.18782752 8.91554557 34.25 12.375 C34.28351563 13.34050781 34.31703125 14.30601562 34.3515625 15.30078125 C34.44413186 22.19719887 33.41948118 27.93256809 30 34 C24.73254675 38.80941384 19.21039868 38.60412191 12.25390625 38.3828125 C6.69859502 37.72924647 4.28223189 35.58808537 0.87109375 31.36328125 C-1.34961604 27.37156699 -1.49593968 24.24645646 -1.3125 19.8125 C-1.29703125 19.06943604 -1.2815625 18.32637207 -1.265625 17.56079102 C-1.11287861 11.67941861 -0.65875484 5.84644919 0 0 Z " fill="#0B0B0B" transform="translate(422,847)"/>
<path d="M0 0 C0.33 2.31 0.66 4.62 1 7 C0.28972656 7.35191406 -0.42054688 7.70382812 -1.15234375 8.06640625 C-6.39597346 10.59877222 -6.39597346 10.59877222 -9.88671875 14.95703125 C-10.20213854 17.0704116 -10.20213854 17.0704116 -10 20 C-5.92086861 19.41831881 -3.13298122 18.06339693 0.375 15.9375 C4.79873299 13.46996076 7.84306269 11.96861254 13 13 C15.75329021 14.79562405 17.52627461 16.05254922 19 19 C19.85124927 24.86145927 19.11271354 29.28351481 15.68359375 34.140625 C11.70656099 38.5328932 6.88241047 41.99471914 0.9375 42.875 C-0.5165625 42.936875 -0.5165625 42.936875 -2 43 C-2.33 40.69 -2.66 38.38 -3 36 C-1.96939453 35.52820313 -1.96939453 35.52820313 -0.91796875 35.046875 C-0.01691406 34.61890625 0.88414062 34.1909375 1.8125 33.75 C2.70582031 33.33234375 3.59914063 32.9146875 4.51953125 32.484375 C7.17332256 30.89627941 8.48266542 29.68180066 10 27 C10 25.68 10 24.36 10 23 C5.25458561 22.258529 2.62683536 24.24120776 -1.1328125 26.80859375 C-5.09937375 29.33955856 -9.41943925 29.69262511 -14 29 C-16.43119623 27.12984906 -17.64069173 25.71861655 -19 23 C-19.55374136 18.46113638 -19.46730004 14.95329208 -17.4375 10.8125 C-12.60397793 5.23535915 -7.71341307 0 0 0 Z " fill="#090909" transform="translate(651,764)"/>
<path d="M0 0 C0.33 2.31 0.66 4.62 1 7 C-0.11375 7.5775 -1.2275 8.155 -2.375 8.75 C-4.52901472 9.99889338 -5.88081885 10.84972812 -7.4375 12.8125 C-8.54023849 17.10092745 -8.57656878 20.66478809 -6.8125 24.75 C-3.98222618 28.26344336 -1.5374615 29.77101637 2.9375 30.4375 C6.86292527 29.87672496 8.94797605 28.49711051 12 26 C14.61000207 22.51999724 14.5787947 18.21205301 15 14 C17.31 13.34 19.62 12.68 22 12 C23.89806878 15.79613756 23.60331463 19.87447713 23 24 C20.41156945 30.28746799 17.07123368 34.89692501 11 38 C5.49374927 39.83541691 -0.9374918 40.14412545 -6.42578125 38.09375 C-11.77802267 34.94893018 -15.02041152 30.93876543 -17 25 C-17.98048541 17.54086414 -16.93618155 12.3530487 -12.71484375 6.10546875 C-9.19669769 1.78592267 -5.83322325 -0.68626156 0 0 Z " fill="#0A0B0B" transform="translate(690,711)"/>
<path d="M0 0 C-0.60389607 3.38181798 -1.33575005 5.7520391 -4 8 C-6.30403667 7.91104106 -8.501821 7.54208491 -10.77734375 7.17578125 C-13.98717881 6.92192786 -15.59049029 7.95556752 -18 10 C-20.69657104 14.04485657 -20.5422677 17.25307196 -20 22 C-18.74121135 24.95815333 -17.89723279 26.44712095 -15.16796875 28.12890625 C-11.40233931 29.64194294 -7.82273222 29.22382434 -4 28 C-2.46997607 26.59517601 -2.46997607 26.59517601 -1.3125 24.875 C-0.549375 23.92625 0.21375 22.9775 1 22 C4.19131315 22.06257477 6.16830555 22.58415277 9 24 C7.94319332 29.54823507 5.46239843 31.69541825 1.00390625 34.7421875 C-4.57191567 38.24202114 -9.50135534 38.64881799 -16 38 C-21.42397406 36.22677771 -24.85168734 32.64660603 -28 28 C-30.51654532 22.71697849 -30.90454732 17.75841282 -30 12 C-27.60732748 6.78362204 -23.36508462 2.69073685 -18.421875 -0.1640625 C-12.67080491 -2.14910927 -5.7359435 -1.91198117 0 0 Z " fill="#0A0A0A" transform="translate(570,828)"/>
<path d="M0 0 C2.64 0.33 5.28 0.66 8 1 C7.86722656 1.78503906 7.73445312 2.57007813 7.59765625 3.37890625 C6.66757357 8.91187987 5.75808113 14.44073841 5 20 C7.97 20.33 10.94 20.66 14 21 C14.06058594 20.34773437 14.12117187 19.69546875 14.18359375 19.0234375 C14.63519991 14.31283783 15.14195039 9.65798362 16 5 C18.31 5.33 20.62 5.66 23 6 C23.25881098 11.95265252 22.27604787 17.17803161 21 23 C25.29 23.66 29.58 24.32 34 25 C33.67 27.97 33.34 30.94 33 34 C24.1970622 33.31227048 15.64899096 31.70187007 7 30 C5.93910156 29.80019531 4.87820313 29.60039063 3.78515625 29.39453125 C2.88667969 29.22308594 1.98820313 29.05164063 1.0625 28.875 C0.29035156 28.72804688 -0.48179687 28.58109375 -1.27734375 28.4296875 C-3 28 -3 28 -4 27 C-3.9269148 17.91916435 -1.76949238 8.86971966 0 0 Z " fill="#0A0B0B" transform="translate(708,629)"/>
<path d="M0 0 C5.39902882 1.90916228 8.8394659 5.7185499 11.3046875 10.7890625 C14.03777 17.71601298 16.0546875 25.27051489 16.0546875 32.7265625 C11.38423306 31.12783002 7.60437094 28.60213957 3.5546875 25.8515625 C2.90371094 25.41714844 2.25273437 24.98273437 1.58203125 24.53515625 C-9.76611808 16.9009467 -9.76611808 16.9009467 -11.9453125 10.7265625 C-11.9453125 6.50127175 -11.58272652 4.49918555 -8.8828125 1.2265625 C-5.67790638 -0.40998531 -3.54623461 -0.68248289 0 0 Z " fill="#F7F7F7" transform="translate(357.9453125,636.2734375)"/>
<path d="M0 0 C9 31.07423581 9 31.07423581 9 37 C4.545 37.495 4.545 37.495 0 38 C-1.15926859 33.87865789 -2.29991196 29.75237422 -3.4375 25.625 C-3.76298828 24.46871094 -4.08847656 23.31242188 -4.42382812 22.12109375 C-6.26430973 15.40428459 -7.61897923 8.96183637 -8 2 C-5.09399739 0.74335022 -3.20395416 0 0 0 Z " fill="#101010" transform="translate(524,839)"/>
<path d="M0 0 C0.763125 0.33 1.52625 0.66 2.3125 1 C1.9825 1.66 1.6525 2.32 1.3125 3 C-0.13382812 2.93039062 -0.13382812 2.93039062 -1.609375 2.859375 C-2.87265625 2.82328125 -4.1359375 2.7871875 -5.4375 2.75 C-6.69046875 2.70359375 -7.9434375 2.6571875 -9.234375 2.609375 C-12.72716412 2.70158047 -12.72716412 2.70158047 -15.0625 4.83984375 C-18.57462125 9.50860108 -19.19903984 14.27075377 -18.6875 20 C-15.45011109 29.71216674 -5.22468995 34.77165863 2.96923828 39.91674805 C13.5138515 46.55348059 13.5138515 46.55348059 17.3125 50 C17.3125 50.66 17.3125 51.32 17.3125 52 C2.74815902 47.9731044 -14.50524031 37.44904844 -22.8125 24.625 C-25.31714013 19.53549996 -25.61067178 14.55628623 -24.6875 9 C-19.67548605 -1.60233721 -10.43928213 -2.83099176 0 0 Z " fill="#EEEEED" transform="translate(360.6875,629)"/>
<path d="M0 0 C4.09338652 -0.04939115 8.18665798 -0.08571501 12.28027344 -0.10986328 C13.67320781 -0.11992877 15.06612102 -0.13358234 16.45898438 -0.15087891 C18.4595436 -0.1751022 20.46025615 -0.18540814 22.4609375 -0.1953125 C24.26763916 -0.21102295 24.26763916 -0.21102295 26.11083984 -0.22705078 C29 0 29 0 31 2 C31.3125 5.5 31.3125 5.5 31 9 C26.55284623 11.96476918 22.35765015 11.36826557 17.125 11.375 C16.13113281 11.39949219 15.13726562 11.42398438 14.11328125 11.44921875 C9.77683589 11.46663419 6.77655626 11.3931195 2.8671875 9.4140625 C0.4807778 6.32870435 0.43717918 3.81988793 0 0 Z " fill="#F8F8F8" transform="translate(452,508)"/>
<path d="M0 0 C10.43961777 0.3030368 20.40337875 1.6580311 30.66650391 3.54882812 C37.78496424 4.84287659 44.76080906 5.72210399 52 6 C51.67 6.66 51.34 7.32 51 8 C35.28330448 12.72122079 16.57940146 8.32312529 2 2 C1.34 1.34 0.68 0.68 0 0 Z " fill="#E9E9E9" transform="translate(399,745)"/>
<path d="M0 0 C3.5 1.125 3.5 1.125 5.375 4.1875 C6.68983033 8.14015765 7.28863599 11.96817455 7.5 16.125 C6.84 16.785 6.18 17.445 5.5 18.125 C4.51 18.125 3.52 18.125 2.5 18.125 C2.29375 17.196875 2.0875 16.26875 1.875 15.3125 C0.79447308 11.85762624 0.79447308 11.85762624 -2.5625 10.625 C-5.5 9.125 -5.5 9.125 -6.5625 6.125 C-6.5 3.125 -6.5 3.125 -5.5 1.1875 C-3.5 0.125 -3.5 0.125 0 0 Z " fill="#0B0B0B" transform="translate(618.5,788.875)"/>
<path d="M0 0 C1.65234375 1.0703125 1.65234375 1.0703125 4.08984375 3.1328125 C4.08984375 3.4628125 4.08984375 3.7928125 4.08984375 4.1328125 C1.56964403 4.47166288 -0.95114141 4.80401585 -3.47265625 5.1328125 C-4.17712891 5.22820313 -4.88160156 5.32359375 -5.60742188 5.421875 C-10.0838348 5.99947667 -14.39676863 6.22770633 -18.91015625 6.1328125 C-17.89782425 3.19704971 -16.94657683 2.15768509 -14.34765625 0.3828125 C-9.57839727 -1.35146349 -4.77267591 -2.1667363 0 0 Z " fill="#EBEBEB" transform="translate(382.91015625,691.8671875)"/>
<path d="M0 0 C1.81618856 1.11903546 3.62785526 2.24541284 5.4375 3.375 C6.44683594 4.00148438 7.45617187 4.62796875 8.49609375 5.2734375 C11 7 11 7 12 9 C10.71186658 9.83878455 9.41936744 10.67086783 8.125 11.5 C7.40570312 11.9640625 6.68640625 12.428125 5.9453125 12.90625 C4 14 4 14 2 14 C0.65088528 9.10945915 -0.11704968 5.10629224 0 0 Z " fill="#EFEFEF" transform="translate(595,818)"/>
<path d="M0 0 C4.62 0 9.24 0 14 0 C13.01 2.97 12.02 5.94 11 9 C5.61103792 7.57351004 3.3524585 4.21006416 0 0 Z " fill="#F2F2F2" transform="translate(703,687)"/>
<path d="M0 0 C0.88429688 -0.01417969 1.76859375 -0.02835938 2.6796875 -0.04296875 C5.125 0.1875 5.125 0.1875 8.125 2.1875 C7.49851562 2.45304688 6.87203125 2.71859375 6.2265625 2.9921875 C5.40929687 3.34539063 4.59203125 3.69859375 3.75 4.0625 C2.93789063 4.41054688 2.12578125 4.75859375 1.2890625 5.1171875 C-1.01302299 6.11196067 -1.01302299 6.11196067 -2.875 8.1875 C-3.865 8.1875 -4.855 8.1875 -5.875 8.1875 C-5.91741723 5.85455225 -5.91592937 3.52047433 -5.875 1.1875 C-4.21846314 -0.46903686 -2.26849204 0.01643835 0 0 Z " fill="#F1F1F1" transform="translate(314.875,704.8125)"/>
<path d="M0 0 C7.9587799 -0.54470737 13.81947541 0.51098155 21 4 C21 4.33 21 4.66 21 5 C14.17225413 5.3848625 8.26157062 4.94185861 2 2 C1.34 1.34 0.68 0.68 0 0 Z " fill="#DADADA" transform="translate(333,727)"/>
<path d="M0 0 C0.721875 0.61875 1.44375 1.2375 2.1875 1.875 C4.78381938 3.83666353 6.94671666 4.95316 10 6 C10 6.66 10 7.32 10 8 C8.35425434 8.02688151 6.70838587 8.04634123 5.0625 8.0625 C4.14597656 8.07410156 3.22945313 8.08570313 2.28515625 8.09765625 C0 8 0 8 -1 7 C-1.125 4 -1.125 4 -1 1 C-0.67 0.67 -0.34 0.34 0 0 Z " fill="#DBDADA" transform="translate(302,715)"/>
<path d="M0 0 C-1.47589672 4.42769017 -3.73069841 8.6336865 -7 12 C-7.99 12 -8.98 12 -10 12 C-9.55396127 6.94489444 -7.35299176 4.59833262 -4 1 C-2 0 -2 0 0 0 Z " fill="#D9D9D9" transform="translate(501,553)"/>
<path d="M0 0 C5.47932789 1.54545146 10.11429181 4.15543212 15 7 C13.14453125 7.58203125 13.14453125 7.58203125 11 8 C9.30963442 7.04060332 7.64605826 6.03357147 6 5 C3.68308546 4.27833809 1.35151077 3.59940471 -1 3 C-0.67 2.01 -0.34 1.02 0 0 Z " fill="#D6D5D5" transform="translate(473,542)"/>
<path d="M0 0 C5.28 0.33 10.56 0.66 16 1 C16 1.33 16 1.66 16 2 C14.576875 2.2165625 14.576875 2.2165625 13.125 2.4375 C10.1065506 2.82935399 10.1065506 2.82935399 8 4 C6.0546875 3.44140625 6.0546875 3.44140625 3.875 2.5625 C3.15054687 2.27503906 2.42609375 1.98757813 1.6796875 1.69140625 C0.84824219 1.34916016 0.84824219 1.34916016 0 1 C0 0.67 0 0.34 0 0 Z " fill="#ADADAD" transform="translate(399,745)"/>
<path d="M0 0 C-0.33 0.66 -0.66 1.32 -1 2 C-4.63 1.67 -8.26 1.34 -12 1 C-12 0.67 -12 0.34 -12 0 C-7.66726186 -0.92844389 -4.33273814 -0.92844389 0 0 Z " fill="#CDCCCC" transform="translate(363,630)"/>
</svg>
